/* XPM */
static char * nvi_xpm[] = {
"48 48 5 1",
" 	c #000000000000",
".	c #FFFF00000000",
"X	c #FFFFFFFF0000",
"o	c #00000000FFFF",
"O	c #FFFFFFFFFFFF",
"               ....XXXXoXXXXXXXXXXXXXXXXXXXXXXXX",
"               ...XXXooXXXXXXXXXXXXXXXXXoXXXXXXX",
"              ....XXXooXXXoo.ooooXXXXXXXXoXXXXXX",
"              ...XXXo. oooo..oooooooXXXXXooXXXXX",
"             ....XXXo.. o....o.. . ooXXXXooXXXXX",
"             ...XXXXo. o..OO...OO . ooXXo..oXXXX",
"            ....XXXXo ...OOO.oOOOO...ooo. .oXXXX",
"            ...XXXXXXo...  O.O  OOo... . . oXXXX",
"           ....XXXXXXXo. O O. O  Oo . . . oXXXXX",
"           ...XXXXXXXXX. O Oo O  Oo. . . oXXXXXX",
"          ....XXXXXXXXXoo  o.o   Oo . . oXXXXXXX",
"          ...XX XXXXXXo..oo..o  Oo.. . oXXXXXXXX",
"         ....XXX   XXo.. o....ooo . . oXXXXXXXXX",
"         ...XXXXX   Xo. .o.. o ... . .oXXXXXXXXX",
"        ....XXXXXXX  Xo. .ooo ... . .ooXXXXXXXXX",
"        ...XX     XX XXoo .. . o . .ooXXXXXXXXXX",
"       ....XXXX O XX XXXoo  .oo . .ooXXXXXXXXXXX",
"       ...XXXXX      XXXXXooo. . ooXXXXXXXXXXXXX",
"      ....XXXXXXXXX    ooXXXooooooXXXXXXXXXXXXXX",
"      ...XXX  X XXX X   ..oo. . ..ooXXXXXXXXXXXX",
"     ....XXXX   XX  XXXo.. ..... .oooXXXXXXXXXXX",
"     ...XXXXXXX    XXXXo o. ooo .o.ooXXXXXXXXXXX",
"    ....XXXXXXXXXXXXXXXo.. .o..ooo oooXXXXXXXXXX",
"    ...XXXXXXXXXXXXXXXXXo .o.o. . ..ooXXXXXXXXXX",
"   ....XXXXXXXXXXXXXXXXXXooo.. . . .ooXXXXXXXXXX",
"   ...XXXXXXXXXXXXXXXXXXXXo . . . .oooXXXXXXXXXX",
"  ....XXXXXXXXXXXXXXXXXXXXoooo . .o.oXXXXXXXXXXX",
"  ...XXXXXXXXXXXXXXXXXXXXXo.. oooo. ooXXXXXXXXXX",
" ....XXXXXXXXXXXXXXXXXXXXXo... . . .ooXXXXXXXXXX",
" ...XXXXXXXXXXXXXXXXXXXXXXo...... . . oXXXXXXXXX",
".....XXXXXXXXXXXXXXXXXXXXXXo . . . . .ooXXXXXXXX",
" ......XXXXXXXXXXXXXXXXXXXXo. . . . . oooXXXXXXX",
"   ......XXXXXXXXXXXXXXXXXXo   o   o o ooooXXXXX",
"     ......XXXXXXXXXXXXXX   .O..O.O.. o . ooXXXX",
"       ......XXXXXXXXXXooO O    .... OoX o oooXX",
"         ......XXXXXXXo O O  O O .. ..oXXXo .ooX",
"           ......XXXXXoO O  O O    O ooXXXXX .o ",
"             ......XXXXooooo O O OOooXXXXXXXX o ",
"               ......XXXXXXXoooooooXXXXXoXXXXX.o",
"                 ......XXXXXXXXXXXXXXooooXXXXXo.",
"                   ......XXXXXXXXXXoo...oXXXoo. ",
"                     ......XXXXX o.o o o.ooo . o",
"                       ......XXXXXXXXXooooo o oX",
"                         ......XXXXXXXXXXXXXXXXX",
"                           ......XXXXXXXXXXXXXXX",
"                             ......XXXXXXXXXXXXX",
"                               ......XXXXXXXXXXX",
"                                 ......XXXXXXXXX"};
