#define nvi_width 48
#define nvi_height 48
static unsigned char nvi_bits[] = {
   0x55, 0x55, 0x55, 0x55, 0x55, 0x55, 0xaa, 0xaa, 0xaa, 0xaa, 0xaa, 0xab,
   0x55, 0x55, 0x55, 0x55, 0x15, 0x56, 0xaa, 0xaa, 0xaa, 0xaa, 0x0a, 0xac,
   0x55, 0x55, 0x55, 0x55, 0x05, 0x5c, 0xaa, 0xaa, 0xaa, 0xaa, 0x0a, 0xac,
   0x55, 0x55, 0x55, 0x55, 0x05, 0x5c, 0xaa, 0xaa, 0xaa, 0xaa, 0x0a, 0xac,
   0x55, 0x55, 0x55, 0x55, 0x15, 0x57, 0xaa, 0xaa, 0xaa, 0xaa, 0xea, 0xab,
   0x55, 0x55, 0x55, 0x55, 0x55, 0x55, 0xaa, 0xaa, 0xaa, 0xaa, 0xaa, 0xaa,
   0xff, 0x57, 0x55, 0xff, 0xfd, 0x5f, 0x82, 0xab, 0xaa, 0xea, 0x2a, 0xae,
   0x85, 0x55, 0x55, 0x65, 0x15, 0x56, 0x82, 0xab, 0xaa, 0xf2, 0x2a, 0xae,
   0x05, 0x57, 0x55, 0x75, 0x15, 0x56, 0x0a, 0xab, 0xaa, 0xb2, 0x2a, 0xae,
   0x05, 0x57, 0x55, 0x79, 0x15, 0x56, 0x0a, 0xae, 0xaa, 0xba, 0x2a, 0xae,
   0x15, 0x56, 0x55, 0x59, 0x15, 0x56, 0x0a, 0xae, 0xaa, 0xbc, 0x2a, 0xae,
   0x15, 0x5c, 0x55, 0x5d, 0x15, 0x56, 0x2a, 0xac, 0xaa, 0xac, 0x2a, 0xae,
   0x15, 0x5c, 0x55, 0x5e, 0x15, 0x56, 0x2a, 0xb8, 0xaa, 0xae, 0x2a, 0xae,
   0x55, 0x58, 0x55, 0x56, 0x15, 0x56, 0x2a, 0xb8, 0x2a, 0xaf, 0x2a, 0xae,
   0x55, 0x70, 0x55, 0x57, 0x15, 0x56, 0xaa, 0xb0, 0x2a, 0xab, 0x2a, 0xae,
   0x55, 0x70, 0x95, 0x57, 0x15, 0x56, 0xaa, 0xe0, 0xaa, 0xab, 0x2a, 0xae,
   0x55, 0x61, 0x95, 0x55, 0x15, 0x56, 0xaa, 0xe0, 0xca, 0xab, 0x2a, 0xae,
   0x55, 0xc1, 0xd5, 0x55, 0x15, 0x56, 0xaa, 0xc2, 0xca, 0xaa, 0x2a, 0xae,
   0x55, 0xc1, 0xe5, 0x55, 0x15, 0x56, 0xaa, 0x82, 0xeb, 0xaa, 0x2a, 0xae,
   0x55, 0x85, 0x65, 0x55, 0x15, 0x56, 0xaa, 0x82, 0xf3, 0xaa, 0x2a, 0xae,
   0x55, 0x05, 0x77, 0x55, 0x15, 0x56, 0xaa, 0x0a, 0xb3, 0xaa, 0x2a, 0xae,
   0x55, 0x05, 0x79, 0x55, 0x15, 0x56, 0xaa, 0x0a, 0xba, 0xaa, 0x2a, 0xae,
   0x55, 0x15, 0x58, 0x55, 0x15, 0x56, 0xaa, 0x0a, 0xac, 0xaa, 0x2a, 0xae,
   0x55, 0xf5, 0x5f, 0x55, 0xfd, 0x5f, 0xaa, 0xea, 0xaf, 0xaa, 0xfa, 0xaf};
